<?xml version="1.0" standalone="no"?>
<!DOCTYPE svg PUBLIC "-//W3C//DTD SVG 20010904//EN"
 "http://www.w3.org/TR/2001/REC-SVG-20010904/DTD/svg10.dtd">
<svg version="1.0" xmlns="http://www.w3.org/2000/svg"
 width="380.000000pt" height="222.000000pt" viewBox="0 0 380.000000 222.000000"
 preserveAspectRatio="xMidYMid meet">

<g transform="translate(0.000000,222.000000) scale(0.100000,-0.100000)"
fill="#000000" stroke="none">
<path d="M243 2030 c-12 -5 -29 -23 -39 -41 -14 -28 -16 -59 -11 -238 5 -224
18 -301 68 -431 41 -108 95 -194 169 -273 114 -122 233 -190 369 -209 l81 -12
30 -64 c42 -90 105 -175 191 -258 165 -157 337 -240 574 -274 214 -30 484 24
725 145 337 169 591 418 911 892 l96 143 7 -92 c3 -50 6 -137 6 -194 0 -146
18 -183 91 -184 25 0 42 7 59 25 23 24 23 25 17 227 -5 184 -22 438 -33 496
-3 14 -18 29 -40 40 -35 16 -37 16 -87 -12 -245 -136 -430 -217 -624 -275 -60
-18 -76 -27 -88 -51 -8 -16 -15 -38 -15 -48 0 -30 36 -69 69 -75 34 -7 200 42
333 98 45 19 83 33 85 32 4 -5 -122 -188 -197 -287 -310 -407 -673 -650 -1056
-706 -264 -39 -519 38 -704 213 -67 62 -170 201 -170 227 0 6 30 25 67 41 86
37 192 138 229 219 70 154 37 318 -80 391 -44 27 -58 30 -125 30 -54 0 -86 -6
-111 -19 -138 -73 -210 -215 -210 -418 l0 -87 -52 16 c-88 26 -130 52 -210
133 -59 60 -85 97 -117 161 -69 146 -82 213 -88 462 l-5 217 -30 25 c-31 26
-49 29 -85 15z m951 -691 c52 -41 29 -156 -46 -235 -35 -38 -124 -88 -138 -79
-5 3 -10 30 -10 60 0 122 42 229 102 258 44 22 60 21 92 -4z"/>
</g>
</svg>
