<?xml version="1.0" encoding="UTF-8"?><svg xmlns="http://www.w3.org/2000/svg" xmlns:xlink="http://www.w3.org/1999/xlink" height="36.1" preserveAspectRatio="xMidYMid meet" version="1.0" viewBox="0.0 0.0 44.0 36.1" width="44.0" zoomAndPan="magnify"><defs><clipPath id="a"><path d="M 16 28 L 24 28 L 24 36.128906 L 16 36.128906 Z M 16 28"/></clipPath><clipPath id="b"><path d="M 31 28 L 39 28 L 39 36.128906 L 31 36.128906 Z M 31 28"/></clipPath><clipPath id="c"><path d="M 0 0 L 43.988281 0 L 43.988281 28 L 0 28 Z M 0 0"/></clipPath></defs><g><g clip-path="url(#a)" id="change1_2"><path d="M 19.613281 30.25 C 20.855469 30.21875 21.890625 31.203125 21.921875 32.445312 C 21.921875 32.46875 21.921875 32.492188 21.921875 32.511719 C 21.9375 33.757812 20.9375 34.777344 19.695312 34.789062 C 18.449219 34.804688 17.429688 33.808594 17.414062 32.5625 C 17.414062 32.546875 17.414062 32.527344 17.414062 32.511719 C 17.410156 31.285156 18.386719 30.277344 19.613281 30.25 Z M 19.566406 28.929688 C 17.625 28.984375 16.085938 30.574219 16.085938 32.511719 C 16.066406 34.492188 17.65625 36.113281 19.636719 36.128906 C 21.613281 36.148438 23.234375 34.558594 23.253906 32.578125 C 23.253906 32.558594 23.253906 32.535156 23.253906 32.511719 C 23.253906 30.53125 21.648438 28.929688 19.667969 28.925781 C 19.636719 28.925781 19.597656 28.925781 19.566406 28.929688" fill="#040606"/></g><g clip-path="url(#b)" id="change1_3"><path d="M 34.597656 30.25 C 35.839844 30.21875 36.875 31.203125 36.90625 32.445312 C 36.90625 32.46875 36.90625 32.492188 36.90625 32.511719 C 36.921875 33.757812 35.921875 34.777344 34.675781 34.789062 C 33.433594 34.804688 32.410156 33.808594 32.398438 32.5625 C 32.398438 32.546875 32.398438 32.527344 32.398438 32.511719 C 32.390625 31.285156 33.371094 30.277344 34.597656 30.25 Z M 34.570312 28.90625 C 32.613281 28.953125 31.054688 30.558594 31.070312 32.511719 C 31.054688 34.492188 32.648438 36.109375 34.625 36.121094 C 36.605469 36.136719 38.222656 34.542969 38.234375 32.5625 C 38.238281 32.546875 38.238281 32.527344 38.234375 32.511719 C 38.25 30.53125 36.652344 28.917969 34.675781 28.90625 C 34.640625 28.90625 34.605469 28.90625 34.570312 28.90625" fill="#040606"/></g><g clip-path="url(#c)" id="change1_1"><path d="M 11.34375 7.484375 L 42.539062 7.484375 L 38.953125 21.820312 L 14.867188 21.820312 Z M 0.660156 -0.00390625 C 0.292969 0 -0.00390625 0.300781 0 0.667969 C 0.00390625 1.03125 0.296875 1.324219 0.660156 1.328125 L 5.675781 1.328125 C 7.308594 1.328125 8.730469 2.441406 9.121094 4.027344 L 14.175781 24.574219 C 14.664062 26.554688 16.441406 27.949219 18.480469 27.949219 L 40.238281 27.949219 C 40.605469 27.941406 40.898438 27.640625 40.894531 27.273438 C 40.886719 26.914062 40.597656 26.625 40.238281 26.617188 L 18.480469 26.617188 C 17.050781 26.617188 15.808594 25.644531 15.46875 24.257812 L 15.195312 23.152344 L 39.992188 23.152344 L 43.96875 7.257812 C 44.085938 6.78125 43.796875 6.300781 43.324219 6.183594 C 43.253906 6.164062 43.179688 6.15625 43.109375 6.15625 L 11.015625 6.15625 L 10.414062 3.707031 C 9.875 1.53125 7.921875 -0.00390625 5.675781 -0.00390625 L 0.660156 -0.00390625" fill="#040606"/></g></g></svg>