<?xml version="1.0" encoding="UTF-8"?><svg xmlns="http://www.w3.org/2000/svg" xmlns:xlink="http://www.w3.org/1999/xlink" height="472.9" preserveAspectRatio="xMidYMid meet" version="1.0" viewBox="0.0 0.0 472.5 472.9" width="472.5" zoomAndPan="magnify"><g id="change1_1"><path d="M465.0380859,472.8652344c-4.1143799,0-7.5-3.3856201-7.5-7.5v-42.7412109 c0-62.8388672-51.1240234-113.9628906-113.9638672-113.9628906H128.9633789C66.1235352,308.6611328,15,359.7851562,15,422.6240234 v42.7412109c0,4.1425781-3.3579102,7.5-7.5,7.5s-7.5-3.3574219-7.5-7.5v-42.7412109 c0-71.1103516,57.8525391-128.9628906,128.9633789-128.9628906h214.6108398 c71.1113281,0,128.9638672,57.8525391,128.9638672,128.9628906v42.7412109 C472.5380859,469.4796143,469.1524658,472.8652344,465.0380859,472.8652344z M373.0166016,136.7480469 C373.0166016,61.3447266,311.671875,0,236.269043,0C160.8657227,0,99.5209961,61.3447266,99.5209961,136.7480469 s61.3447266,136.7480469,136.7480469,136.7480469C311.671875,273.4960938,373.0166016,212.1513672,373.0166016,136.7480469z M358.0166016,136.7480469c0,67.1323242-54.6162109,121.7480469-121.7475586,121.7480469 c-67.1323242,0-121.7480469-54.6157227-121.7480469-121.7480469S169.1367188,15,236.269043,15 C303.4003906,15,358.0166016,69.6157227,358.0166016,136.7480469z" fill="inherit"/></g></svg>